<svg viewBox="0 0 212 11.9" width="212" fill="none" xmlns="http://www.w3.org/2000/svg" preserveAspectRatio="none">
    <path d="M97 0V697H284Q376 697 428.0 651.5Q480 606 480 526Q480 467 451.5 425.0Q423 383 372 366Q438 356 475.5 309.5Q513 263 513 186Q513 94 457.5 47.0Q402 0 295 0ZM117 19H295Q493 19 493 186Q493 265 451.0 308.5Q409 352 333 352H117ZM117 371H311Q379 371 419.5 413.0Q460 455 460 524Q460 597 413.5 637.5Q367 678 284 678H117Z M 862.0 -5 Q 813.0 -5 773.5 13.0 Q 734.0 31 706.5 63.5 Q 679.0 96 664.0 142.0 Q 649.0 188 649.0 243 Q 649.0 299 663.5 345.5 Q 678.0 392 705.0 426.5 Q 732.0 461 770.0 479.5 Q 808.0 498 854.0 498 Q 910.0 498 948.5 478.0 Q 987.0 458 1010.5 426.5 Q 1034.0 395 1044.5 358.0 Q 1055.0 321 1055.0 288 Q 1055.0 273 1054.5 262.5 Q 1054.0 252 1053.0 247 H 669.0 Q 669.0 136 721.5 75.0 Q 774.0 14 862.0 14 Q 916.0 14 952.5 29.5 Q 989.0 45 1027.0 85 L 1043.0 71 Q 1014.0 42 986.5 25.5 Q 959.0 9 929.0 2.0 Q 899.0 -5 862.0 -5 Z M 1035.0 258 Q 1036.0 267 1036.0 276.0 Q 1036.0 285 1036.0 292 Q 1036.0 322 1026.5 355.0 Q 1017.0 388 996.0 416.0 Q 975.0 444 940.0 462.0 Q 905.0 480 854.0 480 Q 801.0 480 760.5 452.0 Q 720.0 424 696.5 375.5 Q 673.0 327 669.0 263 H 1042.0 Z M 1210.0 0 V 493 H 1230.0 V 0 Z M 1206.0 603 V 697 H 1233.0 V 603 Z M 1408.0 0 V 493 H 1428.0 V 359 L 1424.0 358 Q 1435.0 405 1458.5 436.0 Q 1482.0 467 1515.5 482.5 Q 1549.0 498 1590.0 498 Q 1667.0 498 1710.5 450.5 Q 1754.0 403 1754.0 297 V 0 H 1734.0 V 292 Q 1734.0 388 1697.5 434.0 Q 1661.0 480 1590.0 480 Q 1545.0 480 1508.5 456.0 Q 1472.0 432 1450.0 379.5 Q 1428.0 327 1428.0 241 V 0 Z M 2108.0 -210 Q 2006.0 -210 1947.5 -171.5 Q 1889.0 -133 1889.0 -63 Q 1889.0 -59 1889.0 -52.5 Q 1889.0 -46 1890.0 -40 L 1987.0 53 L 2001.0 47 L 1910.0 -46 Q 1909.0 -50 1909.0 -54.5 Q 1909.0 -59 1909.0 -64 Q 1909.0 -126 1962.0 -159.5 Q 2015.0 -193 2108.0 -193 Q 2180.0 -193 2227.5 -166.0 Q 2275.0 -139 2275.0 -85 Q 2275.0 -53 2257.5 -34.0 Q 2240.0 -15 2210.0 -3.5 Q 2180.0 8 2143.0 14.5 Q 2106.0 21 2067.0 27 Q 2023.0 34 1986.5 45.5 Q 1950.0 57 1928.5 78.0 Q 1907.0 99 1907.0 136 Q 1907.0 168 1925.0 190.5 Q 1943.0 213 1980.0 230 L 1990.0 216 Q 1957.0 203 1942.0 183.5 Q 1927.0 164 1927.0 138 Q 1927.0 106 1946.0 88.5 Q 1965.0 71 1996.5 62.0 Q 2028.0 53 2067.0 46 Q 2108.0 39 2148.5 32.0 Q 2189.0 25 2222.0 12.0 Q 2255.0 -1 2274.5 -23.5 Q 2294.0 -46 2294.0 -83 Q 2294.0 -145 2242.5 -177.5 Q 2191.0 -210 2108.0 -210 Z M 2091.0 180 Q 2041.0 180 2002.5 200.0 Q 1964.0 220 1942.0 255.5 Q 1920.0 291 1920.0 337 Q 1920.0 384 1942.0 420.5 Q 1964.0 457 2003.0 477.5 Q 2042.0 498 2091.0 498 Q 2140.0 498 2177.5 477.5 Q 2215.0 457 2236.5 420.5 Q 2258.0 384 2258.0 336 Q 2258.0 290 2236.5 254.5 Q 2215.0 219 2177.5 199.5 Q 2140.0 180 2091.0 180 Z M 2090.0 198 Q 2156.0 198 2197.5 237.0 Q 2239.0 276 2239.0 337 Q 2239.0 401 2197.5 441.0 Q 2156.0 481 2091.0 481 Q 2025.0 481 1982.5 440.5 Q 1940.0 400 1940.0 338 Q 1940.0 277 1981.5 237.5 Q 2023.0 198 2090.0 198 Z M 2229.0 421 2215.0 432 2302.0 512 2312.0 498 Z" stroke-width="1.3" stroke-linecap="round" vector-effect="non-scaling-stroke" style="opacity: 0; visibility: hidden;" transform="translate(0.0000,9.1269) scale(0.0091269158,-0.0091269158)"></path>
    <path d="M428 0V139V304Q428 392 387.0 436.0Q346 480 265 480Q212 480 172.0 459.5Q132 439 98 392L83 404Q120 454 163.0 476.0Q206 498 265 498Q354 498 401.0 449.0Q448 400 448 304V0ZM232 -5Q179 -5 141.5 12.5Q104 30 84.5 61.5Q65 93 65 136Q65 173 78.5 199.0Q92 225 114 241Q142 261 178.5 268.5Q215 276 261 276H432V259H263Q220 259 185.5 252.0Q151 245 128 228Q108 213 96.5 190.5Q85 168 85 136Q85 80 124.5 46.0Q164 12 234 12Q287 12 331.0 39.0Q375 66 401.5 112.5Q428 159 428 217L439 199Q438 136 408.0 90.0Q378 44 331.0 19.5Q284 -5 232 -5Z M 693.0 -5 Q 657.0 -5 638.5 18.5 Q 620.0 42 620.0 93 V 697 H 640.0 V 95 Q 640.0 52 655.0 33.0 Q 670.0 14 698.0 14 Q 710.0 14 723.0 16.5 Q 736.0 19 751.0 24 V 6 Q 735.0 1 721.0 -2.0 Q 707.0 -5 693.0 -5 Z M 1067.0 -5 Q 1001.0 -5 950.0 27.0 Q 899.0 59 870.0 116.0 Q 841.0 173 841.0 247 Q 841.0 321 869.5 377.5 Q 898.0 434 949.0 466.0 Q 1000.0 498 1067.0 498 Q 1134.0 498 1185.0 466.0 Q 1236.0 434 1264.5 377.5 Q 1293.0 321 1293.0 247 Q 1293.0 173 1264.0 116.0 Q 1235.0 59 1184.5 27.0 Q 1134.0 -5 1067.0 -5 Z M 1067.0 13 Q 1129.0 13 1175.0 43.0 Q 1221.0 73 1247.0 125.5 Q 1273.0 178 1273.0 247 Q 1273.0 316 1247.0 368.5 Q 1221.0 421 1174.5 450.5 Q 1128.0 480 1067.0 480 Q 1006.0 480 959.5 450.5 Q 913.0 421 887.0 368.5 Q 861.0 316 861.0 247 Q 861.0 178 887.0 125.5 Q 913.0 73 959.5 43.0 Q 1006.0 13 1067.0 13 Z M 1447.0 0 V 493 H 1467.0 V 359 L 1463.0 358 Q 1474.0 405 1497.5 436.0 Q 1521.0 467 1554.5 482.5 Q 1588.0 498 1629.0 498 Q 1706.0 498 1749.5 450.5 Q 1793.0 403 1793.0 297 V 0 H 1773.0 V 292 Q 1773.0 388 1736.5 434.0 Q 1700.0 480 1629.0 480 Q 1584.0 480 1547.5 456.0 Q 1511.0 432 1489.0 379.5 Q 1467.0 327 1467.0 241 V 0 Z M 2155.0 -5 Q 2106.0 -5 2066.5 13.0 Q 2027.0 31 1999.5 63.5 Q 1972.0 96 1957.0 142.0 Q 1942.0 188 1942.0 243 Q 1942.0 299 1956.5 345.5 Q 1971.0 392 1998.0 426.5 Q 2025.0 461 2063.0 479.5 Q 2101.0 498 2147.0 498 Q 2203.0 498 2241.5 478.0 Q 2280.0 458 2303.5 426.5 Q 2327.0 395 2337.5 358.0 Q 2348.0 321 2348.0 288 Q 2348.0 273 2347.5 262.5 Q 2347.0 252 2346.0 247 H 1962.0 Q 1962.0 136 2014.5 75.0 Q 2067.0 14 2155.0 14 Q 2209.0 14 2245.5 29.5 Q 2282.0 45 2320.0 85 L 2336.0 71 Q 2307.0 42 2279.5 25.5 Q 2252.0 9 2222.0 2.0 Q 2192.0 -5 2155.0 -5 Z M 2328.0 258 Q 2329.0 267 2329.0 276.0 Q 2329.0 285 2329.0 292 Q 2329.0 322 2319.5 355.0 Q 2310.0 388 2289.0 416.0 Q 2268.0 444 2233.0 462.0 Q 2198.0 480 2147.0 480 Q 2094.0 480 2053.5 452.0 Q 2013.0 424 1989.5 375.5 Q 1966.0 327 1962.0 263 H 2335.0 Z" stroke-width="1.3" stroke-linecap="round" vector-effect="non-scaling-stroke" style="opacity: 0; visibility: hidden;" transform="translate(23.6478,9.1269) scale(0.0091269158,-0.0091269158)"></path>
    <path d="M90 0V493H110V0ZM86 603V697H113V603Z M 434.0 -5 Q 387.0 -5 348.5 10.0 Q 310.0 25 282.5 51.5 Q 255.0 78 241.0 114 L 257.0 124 Q 275.0 74 322.0 43.5 Q 369.0 13 434.0 13 Q 497.0 13 537.0 43.0 Q 577.0 73 577.0 128 Q 577.0 173 553.5 197.0 Q 530.0 221 493.5 233.5 Q 457.0 246 417.0 255 Q 387.0 262 360.0 271.0 Q 333.0 280 312.5 293.5 Q 292.0 307 280.5 327.5 Q 269.0 348 269.0 379 Q 269.0 431 310.5 464.5 Q 352.0 498 418.0 498 Q 470.0 498 513.0 474.0 Q 556.0 450 579.0 400 L 564.0 391 Q 541.0 438 503.5 459.5 Q 466.0 481 418.0 481 Q 361.0 481 324.5 452.5 Q 288.0 424 288.0 380 Q 288.0 346 305.5 325.5 Q 323.0 305 353.5 293.5 Q 384.0 282 422.0 273 Q 456.0 265 487.0 255.5 Q 518.0 246 542.5 231.0 Q 567.0 216 581.5 192.0 Q 596.0 168 596.0 130 Q 596.0 89 576.0 58.5 Q 556.0 28 520.0 11.5 Q 484.0 -5 434.0 -5 Z" stroke-width="1.3" stroke-linecap="round" vector-effect="non-scaling-stroke" style="opacity: 0; visibility: hidden;" transform="translate(48.0441,9.1269) scale(0.0091269158,-0.0091269158)"></path>
    <path d="M88 0V493H108V359L104 358Q115 405 138.5 436.0Q162 467 195.5 482.5Q229 498 270 498Q347 498 390.5 450.5Q434 403 434 297V0H414V292Q414 388 377.5 434.0Q341 480 270 480Q225 480 188.5 456.0Q152 432 130.0 379.5Q108 327 108 241V0Z M 809.0 -5 Q 743.0 -5 692.0 27.0 Q 641.0 59 612.0 116.0 Q 583.0 173 583.0 247 Q 583.0 321 611.5 377.5 Q 640.0 434 691.0 466.0 Q 742.0 498 809.0 498 Q 876.0 498 927.0 466.0 Q 978.0 434 1006.5 377.5 Q 1035.0 321 1035.0 247 Q 1035.0 173 1006.0 116.0 Q 977.0 59 926.5 27.0 Q 876.0 -5 809.0 -5 Z M 809.0 13 Q 871.0 13 917.0 43.0 Q 963.0 73 989.0 125.5 Q 1015.0 178 1015.0 247 Q 1015.0 316 989.0 368.5 Q 963.0 421 916.5 450.5 Q 870.0 480 809.0 480 Q 748.0 480 701.5 450.5 Q 655.0 421 629.0 368.5 Q 603.0 316 603.0 247 Q 603.0 178 629.0 125.5 Q 655.0 73 701.5 43.0 Q 748.0 13 809.0 13 Z M 1315.0 -5 Q 1287.0 -5 1268.5 7.0 Q 1250.0 19 1241.5 41.5 Q 1233.0 64 1233.0 95 V 653 L 1253.0 668 V 98 Q 1253.0 58 1268.5 35.5 Q 1284.0 13 1318.0 13 Q 1332.0 13 1347.0 15.5 Q 1362.0 18 1378.0 23 V 5 Q 1361.0 1 1346.5 -2.0 Q 1332.0 -5 1315.0 -5 Z M 1111.0 476 V 493 H 1378.0 V 476 Z" stroke-width="1.3" stroke-linecap="round" vector-effect="non-scaling-stroke" style="opacity: 0; visibility: hidden;" transform="translate(56.4408,9.1269) scale(0.0091269158,-0.0091269158)"></path>
    <path d="M428 0V139V304Q428 392 387.0 436.0Q346 480 265 480Q212 480 172.0 459.5Q132 439 98 392L83 404Q120 454 163.0 476.0Q206 498 265 498Q354 498 401.0 449.0Q448 400 448 304V0ZM232 -5Q179 -5 141.5 12.5Q104 30 84.5 61.5Q65 93 65 136Q65 173 78.5 199.0Q92 225 114 241Q142 261 178.5 268.5Q215 276 261 276H432V259H263Q220 259 185.5 252.0Q151 245 128 228Q108 213 96.5 190.5Q85 168 85 136Q85 80 124.5 46.0Q164 12 234 12Q287 12 331.0 39.0Q375 66 401.5 112.5Q428 159 428 217L439 199Q438 136 408.0 90.0Q378 44 331.0 19.5Q284 -5 232 -5Z" stroke-width="1.3" stroke-linecap="round" vector-effect="non-scaling-stroke" style="opacity: 0; visibility: hidden;" transform="translate(71.7011,9.1269) scale(0.0091269158,-0.0091269158)"></path>
    <path d="M242 0 40 493H63L252 23L441 493H465L263 0Z M 798.0 -5 Q 732.0 -5 681.0 27.0 Q 630.0 59 601.0 116.0 Q 572.0 173 572.0 247 Q 572.0 321 600.5 377.5 Q 629.0 434 680.0 466.0 Q 731.0 498 798.0 498 Q 865.0 498 916.0 466.0 Q 967.0 434 995.5 377.5 Q 1024.0 321 1024.0 247 Q 1024.0 173 995.0 116.0 Q 966.0 59 915.5 27.0 Q 865.0 -5 798.0 -5 Z M 798.0 13 Q 860.0 13 906.0 43.0 Q 952.0 73 978.0 125.5 Q 1004.0 178 1004.0 247 Q 1004.0 316 978.0 368.5 Q 952.0 421 905.5 450.5 Q 859.0 480 798.0 480 Q 737.0 480 690.5 450.5 Q 644.0 421 618.0 368.5 Q 592.0 316 592.0 247 Q 592.0 178 618.0 125.5 Q 644.0 73 690.5 43.0 Q 737.0 13 798.0 13 Z M 1180.0 0 V 493 H 1200.0 V 0 Z M 1176.0 603 V 697 H 1203.0 V 603 Z M 1582.0 -5 Q 1518.0 -5 1466.5 28.0 Q 1415.0 61 1385.5 118.5 Q 1356.0 176 1356.0 247 Q 1356.0 319 1386.0 376.0 Q 1416.0 433 1467.0 465.5 Q 1518.0 498 1582.0 498 Q 1634.0 498 1676.5 476.5 Q 1719.0 455 1749.0 416.5 Q 1779.0 378 1791.0 327 L 1787.0 324 V 697 H 1807.0 V 0 H 1787.0 V 170 L 1792.0 167 Q 1779.0 116 1749.5 77.5 Q 1720.0 39 1677.0 17.0 Q 1634.0 -5 1582.0 -5 Z M 1584.0 14 Q 1643.0 14 1689.0 44.5 Q 1735.0 75 1761.5 128.0 Q 1788.0 181 1788.0 247 Q 1788.0 314 1761.5 366.0 Q 1735.0 418 1689.0 448.5 Q 1643.0 479 1584.0 479 Q 1525.0 479 1477.5 448.5 Q 1430.0 418 1403.0 365.5 Q 1376.0 313 1376.0 247 Q 1376.0 181 1403.0 128.5 Q 1430.0 76 1477.5 45.0 Q 1525.0 14 1584.0 14 Z" stroke-width="1.3" stroke-linecap="round" vector-effect="non-scaling-stroke" style="opacity: 0; visibility: hidden;" transform="translate(78.9296,9.1269) scale(0.0091269158,-0.0091269158)"></path>
    <path d="M214 -5Q186 -5 167.5 7.0Q149 19 140.5 41.5Q132 64 132 95V653L152 668V98Q152 58 167.5 35.5Q183 13 217 13Q231 13 246.0 15.5Q261 18 277 23V5Q260 1 245.5 -2.0Q231 -5 214 -5ZM10 476V493H277V476Z M 603.0 -5 Q 537.0 -5 486.0 27.0 Q 435.0 59 406.0 116.0 Q 377.0 173 377.0 247 Q 377.0 321 405.5 377.5 Q 434.0 434 485.0 466.0 Q 536.0 498 603.0 498 Q 670.0 498 721.0 466.0 Q 772.0 434 800.5 377.5 Q 829.0 321 829.0 247 Q 829.0 173 800.0 116.0 Q 771.0 59 720.5 27.0 Q 670.0 -5 603.0 -5 Z M 603.0 13 Q 665.0 13 711.0 43.0 Q 757.0 73 783.0 125.5 Q 809.0 178 809.0 247 Q 809.0 316 783.0 368.5 Q 757.0 421 710.5 450.5 Q 664.0 480 603.0 480 Q 542.0 480 495.5 450.5 Q 449.0 421 423.0 368.5 Q 397.0 316 397.0 247 Q 397.0 178 423.0 125.5 Q 449.0 73 495.5 43.0 Q 542.0 13 603.0 13 Z" stroke-width="1.3" stroke-linecap="round" vector-effect="non-scaling-stroke" style="opacity: 0; visibility: hidden;" transform="translate(98.6163,9.1269) scale(0.0091269158,-0.0091269158)"></path>
    <path d="M133 0V476H10V493H133V577Q133 620 146.5 647.5Q160 675 185.5 688.5Q211 702 246 702Q266 702 284.0 698.0Q302 694 318 685L311 670Q297 677 282.0 680.5Q267 684 247 684Q202 684 177.5 657.5Q153 631 153 577V493H283V476H153V0Z M 407.0 0 V 493 H 427.0 V 0 Z M 403.0 603 V 697 H 430.0 V 603 Z M 678.0 -5 Q 642.0 -5 623.5 18.5 Q 605.0 42 605.0 93 V 697 H 625.0 V 95 Q 625.0 52 640.0 33.0 Q 655.0 14 683.0 14 Q 695.0 14 708.0 16.5 Q 721.0 19 736.0 24 V 6 Q 720.0 1 706.0 -2.0 Q 692.0 -5 678.0 -5 Z M 921.0 -5 Q 885.0 -5 866.5 18.5 Q 848.0 42 848.0 93 V 697 H 868.0 V 95 Q 868.0 52 883.0 33.0 Q 898.0 14 926.0 14 Q 938.0 14 951.0 16.5 Q 964.0 19 979.0 24 V 6 Q 963.0 1 949.0 -2.0 Q 935.0 -5 921.0 -5 Z M 1037.0 -161 1170.0 131 H 1192.0 L 1054.0 -161 Z" stroke-width="1.3" stroke-linecap="round" vector-effect="non-scaling-stroke" style="opacity: 0; visibility: hidden;" transform="translate(109.1579,9.1269) scale(0.0091269158,-0.0091269158)"></path>
    <path d="M314 -5Q263 -5 219.5 17.0Q176 39 146.0 77.5Q116 116 103 167L108 170V0H88V697H108V324L104 327Q117 379 147.0 417.0Q177 455 220.0 476.5Q263 498 314 498Q378 498 428.5 465.5Q479 433 509.0 376.0Q539 319 539 247Q539 176 509.5 118.5Q480 61 429.0 28.0Q378 -5 314 -5ZM312 14Q371 14 418.0 44.5Q465 75 492.0 128.0Q519 181 519 247Q519 314 492.0 366.0Q465 418 418.0 448.5Q371 479 312 479Q253 479 206.5 448.5Q160 418 133.5 366.0Q107 314 107 247Q107 181 133.5 128.0Q160 75 206.5 44.5Q253 14 312 14Z M 850.0 -5 Q 800.0 -5 763.0 16.0 Q 726.0 37 706.5 81.5 Q 687.0 126 687.0 196 V 493 H 707.0 V 201 Q 707.0 137 723.5 95.5 Q 740.0 54 772.0 33.5 Q 804.0 13 851.0 13 Q 901.0 13 937.5 36.5 Q 974.0 60 993.5 108.5 Q 1013.0 157 1013.0 232 V 493 H 1033.0 V 0 H 1013.0 V 134 H 1016.0 Q 1000.0 61 955.5 28.0 Q 911.0 -5 850.0 -5 Z M 1336.0 -5 Q 1308.0 -5 1289.5 7.0 Q 1271.0 19 1262.5 41.5 Q 1254.0 64 1254.0 95 V 653 L 1274.0 668 V 98 Q 1274.0 58 1289.5 35.5 Q 1305.0 13 1339.0 13 Q 1353.0 13 1368.0 15.5 Q 1383.0 18 1399.0 23 V 5 Q 1382.0 1 1367.5 -2.0 Q 1353.0 -5 1336.0 -5 Z M 1132.0 476 V 493 H 1399.0 V 476 Z" stroke-width="1.3" stroke-linecap="round" vector-effect="non-scaling-stroke" style="opacity: 0; visibility: hidden;" transform="translate(122.8848,9.1269) scale(0.0091269158,-0.0091269158)"></path>
    <path d="M428 0V139V304Q428 392 387.0 436.0Q346 480 265 480Q212 480 172.0 459.5Q132 439 98 392L83 404Q120 454 163.0 476.0Q206 498 265 498Q354 498 401.0 449.0Q448 400 448 304V0ZM232 -5Q179 -5 141.5 12.5Q104 30 84.5 61.5Q65 93 65 136Q65 173 78.5 199.0Q92 225 114 241Q142 261 178.5 268.5Q215 276 261 276H432V259H263Q220 259 185.5 252.0Q151 245 128 228Q108 213 96.5 190.5Q85 168 85 136Q85 80 124.5 46.0Q164 12 234 12Q287 12 331.0 39.0Q375 66 401.5 112.5Q428 159 428 217L439 199Q438 136 408.0 90.0Q378 44 331.0 19.5Q284 -5 232 -5Z" stroke-width="1.3" stroke-linecap="round" vector-effect="non-scaling-stroke" style="opacity: 0; visibility: hidden;" transform="translate(138.3367,9.1269) scale(0.0091269158,-0.0091269158)"></path>
    <path d="M274 -5Q227 -5 189.0 13.5Q151 32 123.5 65.5Q96 99 81.0 145.5Q66 192 66 247Q66 302 81.0 348.0Q96 394 123.5 427.5Q151 461 189.0 479.5Q227 498 274 498Q336 498 384.0 466.5Q432 435 455 372L435 364Q416 422 373.0 451.0Q330 480 274 480Q211 480 169.0 447.5Q127 415 106.5 362.0Q86 309 86 247Q86 185 106.5 131.5Q127 78 169.0 45.5Q211 13 274 13Q330 13 373.0 42.0Q416 71 435 129L455 121Q433 60 386.0 27.5Q339 -5 274 -5Z M 940.0 0 V 139 V 304 Q 940.0 392 899.0 436.0 Q 858.0 480 777.0 480 Q 724.0 480 684.0 459.5 Q 644.0 439 610.0 392 L 595.0 404 Q 632.0 454 675.0 476.0 Q 718.0 498 777.0 498 Q 866.0 498 913.0 449.0 Q 960.0 400 960.0 304 V 0 Z M 744.0 -5 Q 691.0 -5 653.5 12.5 Q 616.0 30 596.5 61.5 Q 577.0 93 577.0 136 Q 577.0 173 590.5 199.0 Q 604.0 225 626.0 241 Q 654.0 261 690.5 268.5 Q 727.0 276 773.0 276 H 944.0 V 259 H 775.0 Q 732.0 259 697.5 252.0 Q 663.0 245 640.0 228 Q 620.0 213 608.5 190.5 Q 597.0 168 597.0 136 Q 597.0 80 636.5 46.0 Q 676.0 12 746.0 12 Q 799.0 12 843.0 39.0 Q 887.0 66 913.5 112.5 Q 940.0 159 940.0 217 L 951.0 199 Q 950.0 136 920.0 90.0 Q 890.0 44 843.0 19.5 Q 796.0 -5 744.0 -5 Z M 1132.0 0 V 493 H 1152.0 V 359 L 1148.0 358 Q 1159.0 405 1182.5 436.0 Q 1206.0 467 1239.5 482.5 Q 1273.0 498 1314.0 498 Q 1391.0 498 1434.5 450.5 Q 1478.0 403 1478.0 297 V 0 H 1458.0 V 292 Q 1458.0 388 1421.5 434.0 Q 1385.0 480 1314.0 480 Q 1269.0 480 1232.5 456.0 Q 1196.0 432 1174.0 379.5 Q 1152.0 327 1152.0 241 V 0 Z M 1803.0 0 1601.0 493 H 1624.0 L 1813.0 23 L 2002.0 493 H 2026.0 L 1824.0 0 Z M 2495.0 0 V 139 V 304 Q 2495.0 392 2454.0 436.0 Q 2413.0 480 2332.0 480 Q 2279.0 480 2239.0 459.5 Q 2199.0 439 2165.0 392 L 2150.0 404 Q 2187.0 454 2230.0 476.0 Q 2273.0 498 2332.0 498 Q 2421.0 498 2468.0 449.0 Q 2515.0 400 2515.0 304 V 0 Z M 2299.0 -5 Q 2246.0 -5 2208.5 12.5 Q 2171.0 30 2151.5 61.5 Q 2132.0 93 2132.0 136 Q 2132.0 173 2145.5 199.0 Q 2159.0 225 2181.0 241 Q 2209.0 261 2245.5 268.5 Q 2282.0 276 2328.0 276 H 2499.0 V 259 H 2330.0 Q 2287.0 259 2252.5 252.0 Q 2218.0 245 2195.0 228 Q 2175.0 213 2163.5 190.5 Q 2152.0 168 2152.0 136 Q 2152.0 80 2191.5 46.0 Q 2231.0 12 2301.0 12 Q 2354.0 12 2398.0 39.0 Q 2442.0 66 2468.5 112.5 Q 2495.0 159 2495.0 217 L 2506.0 199 Q 2505.0 136 2475.0 90.0 Q 2445.0 44 2398.0 19.5 Q 2351.0 -5 2299.0 -5 Z M 2833.0 -5 Q 2786.0 -5 2747.5 10.0 Q 2709.0 25 2681.5 51.5 Q 2654.0 78 2640.0 114 L 2656.0 124 Q 2674.0 74 2721.0 43.5 Q 2768.0 13 2833.0 13 Q 2896.0 13 2936.0 43.0 Q 2976.0 73 2976.0 128 Q 2976.0 173 2952.5 197.0 Q 2929.0 221 2892.5 233.5 Q 2856.0 246 2816.0 255 Q 2786.0 262 2759.0 271.0 Q 2732.0 280 2711.5 293.5 Q 2691.0 307 2679.5 327.5 Q 2668.0 348 2668.0 379 Q 2668.0 431 2709.5 464.5 Q 2751.0 498 2817.0 498 Q 2869.0 498 2912.0 474.0 Q 2955.0 450 2978.0 400 L 2963.0 391 Q 2940.0 438 2902.5 459.5 Q 2865.0 481 2817.0 481 Q 2760.0 481 2723.5 452.5 Q 2687.0 424 2687.0 380 Q 2687.0 346 2704.5 325.5 Q 2722.0 305 2752.5 293.5 Q 2783.0 282 2821.0 273 Q 2855.0 265 2886.0 255.5 Q 2917.0 246 2941.5 231.0 Q 2966.0 216 2980.5 192.0 Q 2995.0 168 2995.0 130 Q 2995.0 89 2975.0 58.5 Q 2955.0 28 2919.0 11.5 Q 2883.0 -5 2833.0 -5 Z" stroke-width="1.3" stroke-linecap="round" vector-effect="non-scaling-stroke" style="opacity: 0; visibility: hidden;" transform="translate(145.5652,9.1269) scale(0.0091269158,-0.0091269158)"></path>
    <path d="M214 -5Q186 -5 167.5 7.0Q149 19 140.5 41.5Q132 64 132 95V653L152 668V98Q152 58 167.5 35.5Q183 13 217 13Q231 13 246.0 15.5Q261 18 277 23V5Q260 1 245.5 -2.0Q231 -5 214 -5ZM10 476V493H277V476Z M 603.0 -5 Q 537.0 -5 486.0 27.0 Q 435.0 59 406.0 116.0 Q 377.0 173 377.0 247 Q 377.0 321 405.5 377.5 Q 434.0 434 485.0 466.0 Q 536.0 498 603.0 498 Q 670.0 498 721.0 466.0 Q 772.0 434 800.5 377.5 Q 829.0 321 829.0 247 Q 829.0 173 800.0 116.0 Q 771.0 59 720.5 27.0 Q 670.0 -5 603.0 -5 Z M 603.0 13 Q 665.0 13 711.0 43.0 Q 757.0 73 783.0 125.5 Q 809.0 178 809.0 247 Q 809.0 316 783.0 368.5 Q 757.0 421 710.5 450.5 Q 664.0 480 603.0 480 Q 542.0 480 495.5 450.5 Q 449.0 421 423.0 368.5 Q 397.0 316 397.0 247 Q 397.0 178 423.0 125.5 Q 449.0 73 495.5 43.0 Q 542.0 13 603.0 13 Z" stroke-width="1.3" stroke-linecap="round" vector-effect="non-scaling-stroke" style="opacity: 0; visibility: hidden;" transform="translate(175.8574,9.1269) scale(0.0091269158,-0.0091269158)"></path>
    <path d="M274 -5Q227 -5 189.0 13.5Q151 32 123.5 65.5Q96 99 81.0 145.5Q66 192 66 247Q66 302 81.0 348.0Q96 394 123.5 427.5Q151 461 189.0 479.5Q227 498 274 498Q336 498 384.0 466.5Q432 435 455 372L435 364Q416 422 373.0 451.0Q330 480 274 480Q211 480 169.0 447.5Q127 415 106.5 362.0Q86 309 86 247Q86 185 106.5 131.5Q127 78 169.0 45.5Q211 13 274 13Q330 13 373.0 42.0Q416 71 435 129L455 121Q433 60 386.0 27.5Q339 -5 274 -5Z M 600.0 0 V 493 H 620.0 V 364 H 616.0 Q 627.0 414 655.5 443.0 Q 684.0 472 720.0 485.0 Q 756.0 498 787.0 498 Q 803.0 498 821.5 495.0 Q 840.0 492 855.0 485 L 844.0 467 Q 831.0 472 816.0 475.5 Q 801.0 479 784.0 479 Q 755.0 479 723.5 467.0 Q 692.0 455 666.5 429.0 Q 641.0 403 629.0 359 Q 625.0 343 622.5 322.0 Q 620.0 301 620.0 260 V 0 Z M 1167.0 -5 Q 1118.0 -5 1078.5 13.0 Q 1039.0 31 1011.5 63.5 Q 984.0 96 969.0 142.0 Q 954.0 188 954.0 243 Q 954.0 299 968.5 345.5 Q 983.0 392 1010.0 426.5 Q 1037.0 461 1075.0 479.5 Q 1113.0 498 1159.0 498 Q 1215.0 498 1253.5 478.0 Q 1292.0 458 1315.5 426.5 Q 1339.0 395 1349.5 358.0 Q 1360.0 321 1360.0 288 Q 1360.0 273 1359.5 262.5 Q 1359.0 252 1358.0 247 H 974.0 Q 974.0 136 1026.5 75.0 Q 1079.0 14 1167.0 14 Q 1221.0 14 1257.5 29.5 Q 1294.0 45 1332.0 85 L 1348.0 71 Q 1319.0 42 1291.5 25.5 Q 1264.0 9 1234.0 2.0 Q 1204.0 -5 1167.0 -5 Z M 1340.0 258 Q 1341.0 267 1341.0 276.0 Q 1341.0 285 1341.0 292 Q 1341.0 322 1331.5 355.0 Q 1322.0 388 1301.0 416.0 Q 1280.0 444 1245.0 462.0 Q 1210.0 480 1159.0 480 Q 1106.0 480 1065.5 452.0 Q 1025.0 424 1001.5 375.5 Q 978.0 327 974.0 263 H 1347.0 Z M 1853.0 0 V 139 V 304 Q 1853.0 392 1812.0 436.0 Q 1771.0 480 1690.0 480 Q 1637.0 480 1597.0 459.5 Q 1557.0 439 1523.0 392 L 1508.0 404 Q 1545.0 454 1588.0 476.0 Q 1631.0 498 1690.0 498 Q 1779.0 498 1826.0 449.0 Q 1873.0 400 1873.0 304 V 0 Z M 1657.0 -5 Q 1604.0 -5 1566.5 12.5 Q 1529.0 30 1509.5 61.5 Q 1490.0 93 1490.0 136 Q 1490.0 173 1503.5 199.0 Q 1517.0 225 1539.0 241 Q 1567.0 261 1603.5 268.5 Q 1640.0 276 1686.0 276 H 1857.0 V 259 H 1688.0 Q 1645.0 259 1610.5 252.0 Q 1576.0 245 1553.0 228 Q 1533.0 213 1521.5 190.5 Q 1510.0 168 1510.0 136 Q 1510.0 80 1549.5 46.0 Q 1589.0 12 1659.0 12 Q 1712.0 12 1756.0 39.0 Q 1800.0 66 1826.5 112.5 Q 1853.0 159 1853.0 217 L 1864.0 199 Q 1863.0 136 1833.0 90.0 Q 1803.0 44 1756.0 19.5 Q 1709.0 -5 1657.0 -5 Z M 2171.0 -5 Q 2143.0 -5 2124.5 7.0 Q 2106.0 19 2097.5 41.5 Q 2089.0 64 2089.0 95 V 653 L 2109.0 668 V 98 Q 2109.0 58 2124.5 35.5 Q 2140.0 13 2174.0 13 Q 2188.0 13 2203.0 15.5 Q 2218.0 18 2234.0 23 V 5 Q 2217.0 1 2202.5 -2.0 Q 2188.0 -5 2171.0 -5 Z M 1967.0 476 V 493 H 2234.0 V 476 Z M 2547.0 -5 Q 2498.0 -5 2458.5 13.0 Q 2419.0 31 2391.5 63.5 Q 2364.0 96 2349.0 142.0 Q 2334.0 188 2334.0 243 Q 2334.0 299 2348.5 345.5 Q 2363.0 392 2390.0 426.5 Q 2417.0 461 2455.0 479.5 Q 2493.0 498 2539.0 498 Q 2595.0 498 2633.5 478.0 Q 2672.0 458 2695.5 426.5 Q 2719.0 395 2729.5 358.0 Q 2740.0 321 2740.0 288 Q 2740.0 273 2739.5 262.5 Q 2739.0 252 2738.0 247 H 2354.0 Q 2354.0 136 2406.5 75.0 Q 2459.0 14 2547.0 14 Q 2601.0 14 2637.5 29.5 Q 2674.0 45 2712.0 85 L 2728.0 71 Q 2699.0 42 2671.5 25.5 Q 2644.0 9 2614.0 2.0 Q 2584.0 -5 2547.0 -5 Z M 2720.0 258 Q 2721.0 267 2721.0 276.0 Q 2721.0 285 2721.0 292 Q 2721.0 322 2711.5 355.0 Q 2702.0 388 2681.0 416.0 Q 2660.0 444 2625.0 462.0 Q 2590.0 480 2539.0 480 Q 2486.0 480 2445.5 452.0 Q 2405.0 424 2381.5 375.5 Q 2358.0 327 2354.0 263 H 2727.0 Z" stroke-width="1.3" stroke-linecap="round" vector-effect="non-scaling-stroke" style="opacity: 0; visibility: hidden;" transform="translate(186.3990,9.1269) scale(0.0091269158,-0.0091269158)"></path>
</svg>